# xmcd
#
# Track frame offsets:
#	150
#	659
#	31046
#	46164
#	73103
#	90257
#	114573
#	139781
#	166001
#	186921
#	214643
#	235988
#	251541
#	276347
#	300075
#
# Disc length: 4239 seconds
#
# Revision: 0
# Processed by: cddbd v1.5.1PL0 Copyright (c) Steve Scherf et al.
# Submitted via: dBpowerAMP V4.0
#
DISCID=b9108d0f
DTITLE=Anne Franks dagbok - CD-BOK 05/12
DYEAR=1982
DGENRE=CD-BOK
TTITLE0=05.01
TTITLE1=05.02
TTITLE2=05.03
TTITLE3=05.04
TTITLE4=05.05
TTITLE5=05.06
TTITLE6=05.07
TTITLE7=05.08
TTITLE8=05.09
TTITLE9=05.10
TTITLE10=05.11
TTITLE11=05.12
TTITLE12=05.13
TTITLE13=05.14
TTITLE14=05.15
EXTD=
EXTT0=
EXTT1=
EXTT2=
EXTT3=
EXTT4=
EXTT5=
EXTT6=
EXTT7=
EXTT8=
EXTT9=
EXTT10=
EXTT11=
EXTT12=
EXTT13=
EXTT14=
PLAYORDER=
